<svg width="1207" height="749" viewBox="0 0 1207 749" fill="none" xmlns="http://www.w3.org/2000/svg">
<path d="M571.609 112.5L624.109 1.5L626.609 0L685.109 101.5L672.609 109L692.109 111.5L725.609 173L705.109 188.5L737.109 194L772.109 250.5L751.109 266.5L783.609 271L814.109 327L711.609 406.5L437.609 364.5L473.609 299L516.109 283.5L486.609 277.5L520.109 208L556.109 196C551.776 194.796 542.109 192.387 538.109 192.387C534.109 192.387 533.109 190.462 533.109 189.5L563.609 121L581.109 115L571.609 112.5Z" fill="white"/>
<path d="M579.109 109L624.609 13.5L647.609 117L579.109 109Z" fill="#BB913D"/>
<path d="M653.109 114.5L632.609 21.5L677.109 99.5L653.109 114.5Z" fill="#BB913D"/>
<path d="M672.109 201.5L657.109 132.5L688.609 117L718.609 172L672.109 201.5Z" fill="#BB913D"/>
<path d="M650.609 132.5L568.609 125L540.609 187.5L666.109 201.5L650.609 132.5Z" fill="#BB913D"/>
<path d="M493.109 274L523.109 212L672.109 228.5L687.109 299.5L493.109 274Z" fill="#BB913D"/>
<path d="M733.609 199.5L677.609 228.5L693.109 298L764.109 248L733.609 199.5Z" fill="#BB913D"/>
<path d="M715.109 399L698.109 323L779.609 274.5L807.609 326L715.109 399Z" fill="#BB913D"/>
<path d="M693.109 324.5L477.109 303L444.109 363.5L709.609 400.5L693.109 324.5Z" fill="#BB913D"/>
<path d="M831.609 728.633C831.609 741.236 821.89 749 806.959 749C796.337 749 789.223 746.278 782.609 739.522L787.72 734.38C793.632 740.329 799.143 742.144 807.159 742.144C817.681 742.144 824.094 737.304 824.094 728.834C824.094 725.003 822.992 721.978 820.587 719.86C818.382 717.844 816.378 717.138 811.268 716.331L802.951 715.122C797.339 714.214 793.131 712.5 789.924 709.677C786.317 706.45 784.413 702.014 784.413 696.166C784.413 683.965 793.131 676 807.26 676C816.378 676 822.391 678.42 828.503 683.865L823.593 688.805C819.284 684.671 814.374 682.554 806.959 682.554C797.339 682.554 791.828 687.898 791.828 695.964C791.828 699.493 792.83 702.417 795.035 704.333C797.239 706.249 800.646 707.459 804.354 708.064L812.671 709.374C819.284 710.383 822.391 711.593 825.597 714.517C829.405 717.844 831.609 722.684 831.609 728.633Z" fill="#6A400F"/>
<path d="M772.609 748H763.495L746.905 716.489H729.392V748H721.609V677H749.567C762.266 677 771.176 684.479 771.176 696.744C771.176 707.115 764.724 713.896 755.302 715.791L772.609 748ZM763.393 696.844C763.393 688.169 757.35 683.781 748.85 683.781H729.392V709.808H748.85C757.35 709.808 763.393 705.52 763.393 696.844Z" fill="#6A400F"/>
<path d="M706.609 748H661.609V677H706.609V683.781H669.347V708.81H701.112V715.591H669.347V741.219H706.609V748Z" fill="#6A400F"/>
<path d="M643.609 712.5C643.609 723.369 643.609 733.74 637.233 740.521C632.375 745.706 626.403 748 618.306 748H593.609V677H618.306C626.403 677 632.375 679.294 637.233 684.479C643.609 691.26 643.609 701.631 643.609 712.5ZM635.917 712.5C635.917 702.628 635.816 693.853 631.16 688.966C627.516 684.978 622.456 683.781 616.99 683.781H601.302V741.219H616.99C622.456 741.219 627.516 740.022 631.16 736.034C635.816 731.147 635.917 722.372 635.917 712.5Z" fill="#6A400F"/>
<path d="M580.609 748H535.609V677H543.382V741.219H580.609V748Z" fill="#6A400F"/>
<path d="M514.609 748H507.609V677H514.609V748Z" fill="#6A400F"/>
<path d="M487.609 724.833C487.609 739.072 477.046 749 462.559 749C448.072 749 437.609 739.072 437.609 724.833V677H445.255V724.231C445.255 735.061 452.096 742.181 462.559 742.181C473.022 742.181 479.964 735.061 479.964 724.231V677H487.609V724.833Z" fill="#6A400F"/>
<path d="M420.609 728.355C420.609 741.219 411.816 748 398.932 748H370.609V677H398.012C410.691 677 419.485 684.08 419.485 695.947C419.485 703.426 414.883 709.309 408.748 711.503C415.701 713.996 420.609 719.879 420.609 728.355ZM412.838 728.156C412.838 720.178 407.215 715.192 398.217 715.192H378.38V741.219H398.217C407.215 741.219 412.838 736.133 412.838 728.156ZM411.714 696.046C411.714 687.57 405.476 683.781 397.399 683.781H378.38V708.412H397.399C405.476 708.412 411.714 704.522 411.714 696.046Z" fill="#6A400F"/>
<path d="M1206.24 568.989C1206.24 588.282 1206.24 606.69 1195.09 618.726C1186.6 627.93 1176.15 632.001 1161.99 632.001H1118.81V505.977H1161.99C1176.15 505.977 1186.6 510.048 1195.09 519.252C1206.24 531.288 1206.24 549.696 1206.24 568.989ZM1192.79 568.989C1192.79 551.466 1192.62 535.89 1184.47 527.217C1178.1 520.137 1169.25 518.013 1159.69 518.013H1132.26V619.965H1159.69C1169.25 619.965 1178.1 617.841 1184.47 610.761C1192.62 602.088 1192.79 586.512 1192.79 568.989Z" fill="#B58F3C"/>
<path d="M1084.18 590.406C1084.18 615.54 1065.6 633.063 1040.11 633.063C1014.62 633.063 996.214 615.54 996.214 590.406V505.977H1009.67V589.344C1009.67 608.46 1021.7 621.027 1040.11 621.027C1058.52 621.027 1070.73 608.46 1070.73 589.344V505.977H1084.18V590.406Z" fill="#B58F3C"/>
<path d="M966.232 568.988C966.232 597.839 965.347 608.813 953.488 620.672C945.7 628.46 935.257 633.062 922.159 633.062C909.061 633.062 898.441 628.46 890.653 620.672C878.794 608.813 878.086 597.839 878.086 568.988C878.086 540.137 878.794 529.163 890.653 517.304C898.441 509.516 909.061 504.914 922.159 504.914C935.257 504.914 945.7 509.516 953.488 517.304C965.347 529.163 966.232 540.137 966.232 568.988ZM952.78 568.988C952.78 543.146 951.895 533.942 943.93 525.8C938.089 519.959 930.655 516.95 922.159 516.95C913.663 516.95 906.229 519.959 900.388 525.8C892.423 533.942 891.538 543.146 891.538 568.988C891.538 594.83 892.423 604.034 900.388 612.176C906.229 618.017 913.663 621.026 922.159 621.026C930.655 621.026 938.089 618.017 943.93 612.176C951.895 604.034 952.78 594.83 952.78 568.988Z" fill="#B58F3C"/>
<path d="M866.368 632.001H788.488V505.977H801.94V619.965H866.368V632.001Z" fill="#B58F3C"/>
<path d="M758.802 595.538C754.377 619.079 737.739 633.062 715.083 633.062C701.985 633.062 691.365 628.46 683.577 620.672C671.718 608.813 671.01 597.839 671.01 568.988C671.01 540.137 671.718 529.163 683.577 517.304C691.365 509.516 701.985 504.914 715.083 504.914C737.916 504.914 754.377 518.897 758.802 542.438H744.996C741.633 526.862 730.836 516.95 715.083 516.95C706.587 516.95 699.153 519.959 693.312 525.8C685.347 533.942 684.462 543.146 684.462 568.988C684.462 594.83 685.347 604.034 693.312 612.176C699.153 618.017 706.587 621.026 715.083 621.026C730.836 621.026 741.987 611.114 745.35 595.538H758.802Z" fill="#B58F3C"/>
<path d="M603.814 632.001H525.58V505.977H603.814V518.013H539.032V562.44H594.256V574.476H539.032V619.965H603.814V632.001Z" fill="#B58F3C"/>
<path d="M501.997 632.001H424.117V505.977H437.569V619.965H501.997V632.001Z" fill="#B58F3C"/>
<path d="M400.603 518.013H364.141V632.001H350.689V518.013H314.227V505.977H400.603V518.013Z" fill="#B58F3C"/>
<path d="M299.887 597.308C299.887 619.433 282.718 633.062 256.345 633.062C237.583 633.062 225.016 628.283 213.334 616.424L222.361 607.397C232.804 617.84 242.539 621.026 256.699 621.026C275.284 621.026 286.612 612.53 286.612 597.662C286.612 590.936 284.665 585.626 280.417 581.909C276.523 578.369 272.983 577.13 263.956 575.714L249.265 573.59C239.353 571.997 231.919 568.988 226.255 564.032C219.883 558.368 216.52 550.58 216.52 540.314C216.52 518.897 231.919 504.914 256.876 504.914C272.983 504.914 283.603 509.162 294.4 518.72L285.727 527.393C278.116 520.136 269.443 516.419 256.345 516.419C239.353 516.419 229.618 525.8 229.618 539.96C229.618 546.155 231.388 551.288 235.282 554.651C239.176 558.014 245.194 560.138 251.743 561.2L266.434 563.501C278.116 565.271 283.603 567.395 289.267 572.528C295.993 578.369 299.887 586.865 299.887 597.308Z" fill="#B58F3C"/>
<path d="M203.542 632.001H189.205L179.116 603.504H124.069L113.98 632.001H99.6426L146.017 505.977H157.345L203.542 632.001ZM175.222 591.822L151.858 525.27L128.14 591.822H175.222Z" fill="#B58F3C"/>
<path d="M87.792 595.538C83.367 619.079 66.729 633.062 44.073 633.062C30.975 633.062 20.355 628.46 12.567 620.672C0.708 608.813 0 597.839 0 568.988C0 540.137 0.708 529.163 12.567 517.304C20.355 509.516 30.975 504.914 44.073 504.914C66.906 504.914 83.367 518.897 87.792 542.438H73.986C70.623 526.862 59.826 516.95 44.073 516.95C35.577 516.95 28.143 519.959 22.302 525.8C14.337 533.942 13.452 543.146 13.452 568.988C13.452 594.83 14.337 604.034 22.302 612.176C28.143 618.017 35.577 621.026 44.073 621.026C59.826 621.026 70.977 611.114 74.34 595.538H87.792Z" fill="#B58F3C"/>
</svg>
