<svg width="1200" height="630" viewBox="0 0 1200 630" fill="none" xmlns="http://www.w3.org/2000/svg">
  <defs>
    <linearGradient id="bg" x1="0" y1="0" x2="1200" y2="630" gradientUnits="userSpaceOnUse">
      <stop stop-color="#0F172A"/>
      <stop offset="0.55" stop-color="#1E293B"/>
      <stop offset="1" stop-color="#0F172A"/>
    </linearGradient>
    <linearGradient id="goldGlow" x1="180" y1="120" x2="420" y2="520" gradientUnits="userSpaceOnUse">
      <stop stop-color="#BB913D" stop-opacity="0.35"/>
      <stop offset="1" stop-color="#BB913D" stop-opacity="0"/>
    </linearGradient>
    <filter id="shadow" x="-20%" y="-20%" width="140%" height="140%">
      <feDropShadow dx="0" dy="8" stdDeviation="16" flood-color="#000000" flood-opacity="0.35"/>
    </filter>
  </defs>

  <rect width="1200" height="630" fill="url(#bg)"/>
  <circle cx="280" cy="315" r="220" fill="url(#goldGlow)"/>
  <rect x="0" y="598" width="1200" height="32" fill="#BB913D" fill-opacity="0.9"/>

  <g transform="translate(139.2 174.2) scale(2.2)" filter="url(#shadow)">
    <rect x="12" y="116" width="104" height="6" rx="3" fill="#6A400F"/>
    <rect x="16" y="64" width="28" height="52" rx="3" fill="#8B6914"/>
    <rect x="48" y="36" width="32" height="80" rx="3" fill="#BB913D"/>
    <rect x="84" y="52" width="24" height="64" rx="3" fill="#8B6914"/>
    <rect x="22" y="74" width="7" height="7" rx="1.2" fill="#F5E6C8"/>
    <rect x="31" y="74" width="7" height="7" rx="1.2" fill="#F5E6C8"/>
    <rect x="22" y="86" width="7" height="7" rx="1.2" fill="#F5E6C8"/>
    <rect x="31" y="86" width="7" height="7" rx="1.2" fill="#F5E6C8"/>
    <rect x="22" y="98" width="7" height="7" rx="1.2" fill="#F5E6C8"/>
    <rect x="31" y="98" width="7" height="7" rx="1.2" fill="#F5E6C8"/>
    <rect x="55" y="48" width="7" height="7" rx="1.2" fill="#F5E6C8"/>
    <rect x="66" y="48" width="7" height="7" rx="1.2" fill="#F5E6C8"/>
    <rect x="55" y="62" width="7" height="7" rx="1.2" fill="#F5E6C8"/>
    <rect x="66" y="62" width="7" height="7" rx="1.2" fill="#F5E6C8"/>
    <rect x="55" y="76" width="7" height="7" rx="1.2" fill="#F5E6C8"/>
    <rect x="66" y="76" width="7" height="7" rx="1.2" fill="#F5E6C8"/>
    <rect x="55" y="90" width="7" height="7" rx="1.2" fill="#F5E6C8"/>
    <rect x="66" y="90" width="7" height="7" rx="1.2" fill="#F5E6C8"/>
    <rect x="90" y="62" width="6" height="6" rx="1.2" fill="#F5E6C8"/>
    <rect x="98" y="62" width="6" height="6" rx="1.2" fill="#F5E6C8"/>
    <rect x="90" y="74" width="6" height="6" rx="1.2" fill="#F5E6C8"/>
    <rect x="98" y="74" width="6" height="6" rx="1.2" fill="#F5E6C8"/>
    <rect x="90" y="86" width="6" height="6" rx="1.2" fill="#F5E6C8"/>
    <rect x="98" y="86" width="6" height="6" rx="1.2" fill="#F5E6C8"/>
    <rect x="108" y="12" width="7" height="104" rx="2" fill="#D4A84B"/>
    <rect x="40" y="12" width="80" height="8" rx="2" fill="#D4A84B"/>
    <rect x="40" y="20" width="4" height="18" rx="1.5" fill="#BB913D"/>
    <path d="M38 40h8l-4 7-4-7z" fill="#BB913D"/>
    <rect x="115" y="12" width="9" height="16" rx="2" fill="#6A400F"/>
  </g>

  <text x="500" y="250" fill="#FFFFFF" font-family="Georgia, 'Times New Roman', serif" font-size="56" font-weight="700" letter-spacing="-0.5">ERP Software</text>
  <text x="500" y="310" fill="#BB913D" font-family="system-ui, -apple-system, sans-serif" font-size="28" font-weight="600" letter-spacing="0.08em">CONSTRUCTION ERP</text>
  <text x="500" y="380" fill="#CBD5E1" font-family="system-ui, -apple-system, sans-serif" font-size="24" font-weight="400">Intelligent Construction Management Platform</text>
  <text x="500" y="430" fill="#94A3B8" font-family="system-ui, -apple-system, sans-serif" font-size="20" font-weight="400">Projects | Inventory | Labour | DPR | Machinery | Analytics</text>

  <rect x="500" y="470" width="220" height="4" rx="2" fill="#BB913D"/>
</svg>
