<svg width="377" height="407" viewBox="0 0 377 407" fill="none" xmlns="http://www.w3.org/2000/svg">
<path d="M134 112.5L186.5 1.5L189 0L247.5 101.5L235 109L254.5 111.5L288 173L267.5 188.5L299.5 194L334.5 250.5L313.5 266.5L346 271L376.5 327L274 406.5L0 364.5L36 299L78.5 283.5L49 277.5L82.5 208L118.5 196C114.167 194.796 104.5 192.387 100.5 192.387C96.5 192.387 95.5 190.462 95.5 189.5L126 121L143.5 115L134 112.5Z" fill="white"/>
<path d="M141.5 109L187 13.5L210 117L141.5 109Z" fill="#BB913D"/>
<path d="M215.5 114.5L195 21.5L239.5 99.5L215.5 114.5Z" fill="#BB913D"/>
<path d="M234.5 201.5L219.5 132.5L251 117L281 172L234.5 201.5Z" fill="#BB913D"/>
<path d="M213 132.5L131 125L103 187.5L228.5 201.5L213 132.5Z" fill="#BB913D"/>
<path d="M55.5 274L85.5 212L234.5 228.5L249.5 299.5L55.5 274Z" fill="#BB913D"/>
<path d="M296 199.5L240 228.5L255.5 298L326.5 248L296 199.5Z" fill="#BB913D"/>
<path d="M277.5 399L260.5 323L342 274.5L370 326L277.5 399Z" fill="#BB913D"/>
<path d="M255.5 324.5L39.5 303L6.5 363.5L272 400.5L255.5 324.5Z" fill="#BB913D"/>
</svg>
